<svg xmlns="http://www.w3.org/2000/svg" width="20" height="20" fill="none" viewBox="0 0 20 20"><path fill="#1976F0" fill-rule="evenodd" d="M5.834 2.24c-.092-.341-.576-.341-.668 0A4.148 4.148 0 0 1 2.24 5.166c-.341.092-.341.576 0 .668A4.148 4.148 0 0 1 5.166 8.76c.092.341.576.341.668 0A4.148 4.148 0 0 1 8.76 5.834c.34-.092.34-.576 0-.668A4.148 4.148 0 0 1 5.834 2.24Zm6.649 3.553c-.133-.493-.833-.493-.966 0l-.316 1.174a6 6 0 0 1-4.234 4.234l-1.174.316c-.493.133-.493.833 0 .966l1.174.316a6 6 0 0 1 4.234 4.234l.316 1.174c.133.493.833.493.966 0l.316-1.174a6 6 0 0 1 4.234-4.234l1.174-.316c.493-.133.493-.833 0-.966l-1.174-.316a6 6 0 0 1-4.234-4.234l-.316-1.174Z" clip-rule="evenodd"/></svg>